<svg xmlns="http://www.w3.org/2000/svg" xmlns:xlink="http://www.w3.org/1999/xlink" width="1080" zoomAndPan="magnify" viewBox="0 0 810 809.999993" height="1080" preserveAspectRatio="xMidYMid meet" version="1.0"><defs><filter x="0%" y="0%" width="100%" height="100%" id="20570e7ac9"><feColorMatrix values="0 0 0 0 1 0 0 0 0 1 0 0 0 0 1 0 0 0 1 0" color-interpolation-filters="sRGB"/></filter><mask id="3ab15b0031"><g filter="url(#20570e7ac9)"><rect x="-81" width="972" fill="#000000" y="-80.999999" height="971.999992" fill-opacity="0.7"/></g></mask><clipPath id="77d93c69c9"><path d="M 0.238281 0.15625 L 798 0.15625 L 798 797.761719 L 0.238281 797.761719 Z M 0.238281 0.15625 " clip-rule="nonzero"/></clipPath><clipPath id="00919d60b1"><path d="M 0.238281 0.15625 L 797.839844 0.15625 L 797.839844 797.761719 L 0.238281 797.761719 Z M 0.238281 0.15625 " clip-rule="nonzero"/></clipPath><clipPath id="c3ca7d7730"><rect x="0" width="798" y="0" height="798"/></clipPath><clipPath id="0b250ebf01"><rect x="0" width="798" y="0" height="798"/></clipPath></defs><rect x="-81" width="972" fill="#ffffff" y="-80.999999" height="971.999992" fill-opacity="1"/><rect x="-81" width="972" fill="#ffffff" y="-80.999999" height="971.999992" fill-opacity="1"/><g mask="url(#3ab15b0031)"><g transform="matrix(1, 0, 0, 1, 6, 6)"><g clip-path="url(#0b250ebf01)"><g clip-path="url(#77d93c69c9)"><g transform="matrix(1, 0, 0, 1, 0, 0.000000000000039968)"><g clip-path="url(#c3ca7d7730)"><g clip-path="url(#00919d60b1)"><path fill="#99948c" d="M 399.09375 0.0898438 C 618.996094 0.0898438 797.902344 179 797.902344 398.902344 C 797.902344 618.804688 618.996094 797.710938 399.09375 797.710938 C 179.1875 797.710938 0.28125 618.804688 0.28125 398.902344 C 0.28125 179 179.1875 0.0898438 399.09375 0.0898438 Z M 399.09375 59.914062 C 211.519531 59.914062 60.105469 211.328125 60.105469 398.902344 C 60.105469 586.472656 211.519531 737.890625 399.09375 737.890625 C 586.664062 737.890625 738.082031 586.472656 738.082031 398.902344 C 738.082031 211.328125 586.664062 59.914062 399.09375 59.914062 Z M 437.027344 199.027344 L 479.320312 241.324219 L 321.824219 398.902344 L 479.320312 556.476562 L 437.027344 598.773438 L 237.152344 398.902344 Z M 437.027344 199.027344 " fill-opacity="1" fill-rule="nonzero"/></g></g></g></g></g></g></g></svg>