<svg xmlns="http://www.w3.org/2000/svg" xmlns:xlink="http://www.w3.org/1999/xlink" width="1080" zoomAndPan="magnify" viewBox="0 0 810 809.999993" height="1080" preserveAspectRatio="xMidYMid meet" version="1.0"><defs><filter x="0%" y="0%" width="100%" height="100%" id="5f751ed063"><feColorMatrix values="0 0 0 0 1 0 0 0 0 1 0 0 0 0 1 0 0 0 1 0" color-interpolation-filters="sRGB"/></filter><mask id="0071ae5834"><g filter="url(#5f751ed063)"><rect x="-81" width="972" fill="#000000" y="-80.999999" height="971.999992" fill-opacity="0.7"/></g></mask><clipPath id="aa3f0f23bb"><path d="M 0.15625 0.15625 L 797.761719 0.15625 L 797.761719 797.761719 L 0.15625 797.761719 Z M 0.15625 0.15625 " clip-rule="nonzero"/></clipPath><clipPath id="79f1faf487"><rect x="0" width="798" y="0" height="798"/></clipPath></defs><g mask="url(#0071ae5834)"><g transform="matrix(1, 0, 0, 1, 6, 6)"><g clip-path="url(#79f1faf487)"><g clip-path="url(#aa3f0f23bb)"><path fill="#99948c" d="M 398.902344 0.0898438 C 179 0.0898438 0.0898438 179 0.0898438 398.902344 C 0.0898438 618.804688 179 797.710938 398.902344 797.710938 C 618.804688 797.710938 797.710938 618.804688 797.710938 398.902344 C 797.710938 179 618.804688 0.0898438 398.902344 0.0898438 Z M 398.902344 59.914062 C 586.472656 59.914062 737.890625 211.328125 737.890625 398.902344 C 737.890625 586.472656 586.472656 737.890625 398.902344 737.890625 C 211.328125 737.890625 59.914062 586.472656 59.914062 398.902344 C 59.914062 211.328125 211.328125 59.914062 398.902344 59.914062 Z M 360.96875 199.027344 L 318.671875 241.324219 L 476.171875 398.902344 L 318.671875 556.476562 L 360.96875 598.773438 L 560.839844 398.902344 Z M 360.96875 199.027344 " fill-opacity="1" fill-rule="nonzero"/></g></g></g></g></svg>