<svg xmlns="http://www.w3.org/2000/svg" xmlns:xlink="http://www.w3.org/1999/xlink" width="200" zoomAndPan="magnify" viewBox="0 0 150 48.75" height="65" preserveAspectRatio="xMidYMid meet" version="1.0"><defs><clipPath id="9c7a5f89a3"><path d="M 3.042969 2.007812 L 147 2.007812 L 147 46.78125 L 3.042969 46.78125 Z M 3.042969 2.007812 " clip-rule="nonzero"/></clipPath></defs><g clip-path="url(#9c7a5f89a3)"><path fill="#e6e1d5" d="M 7.671875 46.480469 C 6.71875 46.480469 5.765625 46.128906 5.023438 45.421875 C 3.480469 43.960938 3.414062 41.523438 4.878906 39.980469 L 19.621094 24.4375 L 4.878906 8.898438 C 3.414062 7.355469 3.480469 4.917969 5.023438 3.457031 C 6.566406 1.992188 9 2.058594 10.464844 3.597656 L 27.71875 21.789062 C 29.128906 23.273438 29.128906 25.601562 27.71875 27.089844 L 10.464844 45.28125 C 9.707031 46.078125 8.691406 46.480469 7.671875 46.480469 Z M 39.824219 45.28125 L 57.078125 27.089844 C 58.484375 25.601562 58.484375 23.273438 57.078125 21.789062 L 39.824219 3.597656 C 38.359375 2.058594 35.921875 1.992188 34.378906 3.457031 C 32.835938 4.917969 32.773438 7.355469 34.238281 8.898438 L 48.976562 24.4375 L 34.238281 39.980469 C 32.773438 41.523438 32.835938 43.960938 34.378906 45.421875 C 35.125 46.128906 36.078125 46.480469 37.027344 46.480469 C 38.046875 46.480469 39.066406 46.078125 39.824219 45.28125 Z M 69.179688 45.28125 L 86.433594 27.089844 C 87.84375 25.601562 87.84375 23.273438 86.433594 21.789062 L 69.179688 3.597656 C 67.71875 2.058594 65.28125 1.992188 63.738281 3.457031 C 62.195312 4.917969 62.132812 7.355469 63.59375 8.898438 L 78.335938 24.4375 L 63.59375 39.980469 C 62.132812 41.523438 62.195312 43.960938 63.738281 45.421875 C 64.484375 46.128906 65.4375 46.480469 66.386719 46.480469 C 67.40625 46.480469 68.425781 46.078125 69.179688 45.28125 Z M 98.539062 45.28125 L 115.792969 27.089844 C 117.203125 25.601562 117.203125 23.273438 115.792969 21.789062 L 98.539062 3.597656 C 97.074219 2.058594 94.640625 1.992188 93.097656 3.457031 C 91.554688 4.917969 91.488281 7.355469 92.953125 8.898438 L 107.695312 24.4375 L 92.953125 39.980469 C 91.488281 41.523438 91.554688 43.960938 93.097656 45.421875 C 93.839844 46.128906 94.792969 46.480469 95.746094 46.480469 C 96.765625 46.480469 97.78125 46.078125 98.539062 45.28125 Z M 127.898438 45.28125 L 145.152344 27.089844 C 146.558594 25.601562 146.558594 23.273438 145.152344 21.789062 L 127.898438 3.597656 C 126.433594 2.054688 123.996094 1.992188 122.453125 3.457031 C 120.910156 4.917969 120.847656 7.355469 122.3125 8.898438 L 137.050781 24.4375 L 122.3125 39.980469 C 120.847656 41.523438 120.914062 43.960938 122.453125 45.421875 C 123.199219 46.128906 124.152344 46.480469 125.105469 46.480469 C 126.121094 46.480469 127.140625 46.078125 127.898438 45.28125 Z M 127.898438 45.28125 " fill-opacity="1" fill-rule="nonzero"/></g></svg>